<?xml version="1.0" encoding="UTF-8" standalone="no"?>
<!-- Created with Inkscape (http://www.inkscape.org/) -->

<svg
   width="264.58334mm"
   height="155.94867mm"
   viewBox="0 0 264.58334 155.94867"
   version="1.1"
   id="svg1"
   inkscape:version="1.3.2 (091e20e, 2023-11-25, custom)"
   sodipodi:docname="Inside Out 2 logo.svg"
   xmlns:inkscape="http://www.inkscape.org/namespaces/inkscape"
   xmlns:sodipodi="http://sodipodi.sourceforge.net/DTD/sodipodi-0.dtd"
   xmlns="http://www.w3.org/2000/svg"
   xmlns:svg="http://www.w3.org/2000/svg">
  <sodipodi:namedview
     id="namedview1"
     pagecolor="#ffffff"
     bordercolor="#000000"
     borderopacity="0.25"
     inkscape:showpageshadow="2"
     inkscape:pageopacity="0.0"
     inkscape:pagecheckerboard="0"
     inkscape:deskcolor="#d1d1d1"
     inkscape:document-units="mm"
     inkscape:zoom="0.75455247"
     inkscape:cx="27.831067"
     inkscape:cy="359.81593"
     inkscape:window-width="1920"
     inkscape:window-height="1094"
     inkscape:window-x="-11"
     inkscape:window-y="-11"
     inkscape:window-maximized="1"
     inkscape:current-layer="layer1" />
  <defs
     id="defs1">
    <clipPath
       clipPathUnits="userSpaceOnUse"
       id="clipPath9">
      <path
         d="m 31.181,760.882 h 101.727 v 64 H 31.181 Z"
         transform="translate(-43.263201,-796.56012)"
         id="path9" />
    </clipPath>
    <clipPath
       clipPathUnits="userSpaceOnUse"
       id="clipPath11">
      <path
         d="m 31.181,760.882 h 101.727 v 64 H 31.181 Z"
         transform="translate(-63.392501,-797.64082)"
         id="path11" />
    </clipPath>
    <clipPath
       clipPathUnits="userSpaceOnUse"
       id="clipPath13">
      <path
         d="m 31.181,760.882 h 101.727 v 64 H 31.181 Z"
         transform="translate(-65.860102,-805.47012)"
         id="path13" />
    </clipPath>
    <clipPath
       clipPathUnits="userSpaceOnUse"
       id="clipPath15">
      <path
         d="m 31.181,760.882 h 101.727 v 64 H 31.181 Z"
         transform="translate(-78.111099,-794.12162)"
         id="path15" />
    </clipPath>
    <clipPath
       clipPathUnits="userSpaceOnUse"
       id="clipPath17">
      <path
         d="m 31.181,760.882 h 101.727 v 64 H 31.181 Z"
         transform="translate(-65.751701,-772.75482)"
         id="path17" />
    </clipPath>
    <clipPath
       clipPathUnits="userSpaceOnUse"
       id="clipPath19">
      <path
         d="m 31.181,760.882 h 101.727 v 64 H 31.181 Z"
         transform="translate(-74.328602,-787.20142)"
         id="path19" />
    </clipPath>
    <clipPath
       clipPathUnits="userSpaceOnUse"
       id="clipPath21">
      <path
         d="m 31.181,760.882 h 101.727 v 64 H 31.181 Z"
         transform="translate(-47.152501,-781.49942)"
         id="path21" />
    </clipPath>
    <clipPath
       clipPathUnits="userSpaceOnUse"
       id="clipPath23">
      <path
         d="m 31.181,760.882 h 101.727 v 64 H 31.181 Z"
         transform="translate(-99.847502,-800.84192)"
         id="path23" />
    </clipPath>
    <clipPath
       clipPathUnits="userSpaceOnUse"
       id="clipPath25">
      <path
         d="m 31.181,760.882 h 101.727 v 64 H 31.181 Z"
         transform="translate(-99.061202,-770.40382)"
         id="path25" />
    </clipPath>
    <clipPath
       clipPathUnits="userSpaceOnUse"
       id="clipPath27">
      <path
         d="m 31.181,760.882 h 101.727 v 64 H 31.181 Z"
         transform="translate(-65.391802,-809.13332)"
         id="path27" />
    </clipPath>
    <clipPath
       clipPathUnits="userSpaceOnUse"
       id="clipPath29">
      <path
         d="m 31.181,760.882 h 101.727 v 64 H 31.181 Z"
         transform="translate(-67.724402,-809.94452)"
         id="path29" />
    </clipPath>
    <clipPath
       clipPathUnits="userSpaceOnUse"
       id="clipPath31">
      <path
         d="m 31.181,760.882 h 101.727 v 64 H 31.181 Z"
         transform="translate(-69.947402,-811.11222)"
         id="path31" />
    </clipPath>
    <clipPath
       clipPathUnits="userSpaceOnUse"
       id="clipPath33">
      <path
         d="m 31.181,760.882 h 101.727 v 64 H 31.181 Z"
         transform="translate(-71.762702,-813.42002)"
         id="path33" />
    </clipPath>
    <clipPath
       clipPathUnits="userSpaceOnUse"
       id="clipPath35">
      <path
         d="m 31.181,760.882 h 101.727 v 64 H 31.181 Z"
         transform="translate(-74.966002,-813.71872)"
         id="path35" />
    </clipPath>
    <clipPath
       clipPathUnits="userSpaceOnUse"
       id="clipPath37">
      <path
         d="m 31.181,760.882 h 101.727 v 64 H 31.181 Z"
         transform="translate(-62.989502,-809.23002)"
         id="path37" />
    </clipPath>
    <clipPath
       clipPathUnits="userSpaceOnUse"
       id="clipPath39">
      <path
         d="m 31.181,760.882 h 101.727 v 64 H 31.181 Z"
         transform="translate(-55.099801,-806.88532)"
         id="path39" />
    </clipPath>
    <clipPath
       clipPathUnits="userSpaceOnUse"
       id="clipPath41">
      <path
         d="m 31.181,760.882 h 101.727 v 64 H 31.181 Z"
         transform="translate(-59.906101,-808.34312)"
         id="path41" />
    </clipPath>
    <clipPath
       clipPathUnits="userSpaceOnUse"
       id="clipPath43">
      <path
         d="m 31.181,760.882 h 101.727 v 64 H 31.181 Z"
         transform="translate(-61.821401,-808.76012)"
         id="path43" />
    </clipPath>
    <clipPath
       clipPathUnits="userSpaceOnUse"
       id="clipPath45">
      <path
         d="m 31.181,760.882 h 101.727 v 64 H 31.181 Z"
         transform="translate(-55.271002,-807.96142)"
         id="path45" />
    </clipPath>
    <clipPath
       clipPathUnits="userSpaceOnUse"
       id="clipPath47">
      <path
         d="m 31.181,760.882 h 101.727 v 64 H 31.181 Z"
         transform="translate(-58.246402,-808.28232)"
         id="path47" />
    </clipPath>
    <clipPath
       clipPathUnits="userSpaceOnUse"
       id="clipPath49">
      <path
         d="m 31.181,760.882 h 101.727 v 64 H 31.181 Z"
         transform="translate(-57.035701,-807.64202)"
         id="path49" />
    </clipPath>
    <clipPath
       clipPathUnits="userSpaceOnUse"
       id="clipPath51">
      <path
         d="m 31.181,760.882 h 101.727 v 64 H 31.181 Z"
         transform="translate(-51.949801,-804.37482)"
         id="path51" />
    </clipPath>
    <clipPath
       clipPathUnits="userSpaceOnUse"
       id="clipPath53">
      <path
         d="m 31.181,760.882 h 101.727 v 64 H 31.181 Z"
         transform="translate(-128.9463,-791.76922)"
         id="path53" />
    </clipPath>
  </defs>
  <g
     inkscape:label="Layer 1"
     inkscape:groupmode="layer"
     id="layer1"
     transform="translate(-97.366664,-137.31874)">
    <g
       id="g1">
      <path
         id="path8"
         d="M 0,0 C 0.676,0.297 0.911,0.384 1.445,0.57 1.84,0.708 2.247,0.87 2.689,1.027 4.004,-0.347 5.475,-2.112 6.343,-3.086 7.45,-4.328 8.719,-5.732 10.161,-7.019 9.76,-5.826 9.05,-4.283 8.489,-2.963 7.928,-1.642 6.647,1.76 5.937,3.338 6.439,3.609 7.539,3.976 8.195,4.209 8.624,4.362 9.275,4.57 9.71,4.771 c 0.881,-2.22 1.785,-4.594 2.357,-6.14 0.527,-1.424 1.259,-3.121 1.953,-5.108 0.645,-1.845 1.45,-3.79 1.825,-4.716 0.375,-0.925 0.913,-2.472 1.296,-3.292 -0.651,-0.369 -1.717,-0.61 -2.903,-1.031 -1.177,1.239 -2.259,2.188 -3.429,3.432 -1.331,1.414 -2.872,3.227 -3.494,3.894 -0.729,0.783 -2.49,2.733 -2.49,2.733 0.665,-1.744 2.037,-5.497 2.577,-7.147 0.54,-1.649 0.994,-2.893 1.124,-3.261 -0.55,-0.299 -1.186,-0.582 -1.431,-0.67 -0.245,-0.087 -0.531,-0.189 -0.817,-0.29 -0.62,1.484 -1.433,3.773 -1.939,5.066 -0.506,1.294 -0.996,3.192 -1.905,5.494 C 1.524,-3.964 0.191,-0.669 0,0"
         style="fill:#000000 icc-color(sRGB-IEC61966-2, 0.1, 0, 0, 0);fill-opacity:1;fill-rule:nonzero;stroke:none"
         transform="matrix(2.77086,0,0,-2.77086,119.0866,207.26321)"
         clip-path="url(#clipPath9)" />
      <path
         id="path10"
         d="M 0,0 C 0.819,0.383 2.344,0.856 3.391,1.343 3.045,2.187 2.201,4.466 1.764,5.208 1.22,6.134 0.359,6.896 -0.549,6.988 -1.456,7.08 -2.46,7.184 -4.23,6.463 -6,5.742 -7.207,4.507 -7.506,3.503 c -0.29,-0.97 -0.47,-1.917 0.505,-4.793 0.976,-2.876 2.861,-4.198 4.591,-3.848 1.301,0.263 2.201,0.413 2.942,0.4 0.741,-0.012 2.049,-0.193 2.606,-2.021 0.557,-1.828 -0.529,-2.398 -1.429,-2.717 -0.899,-0.32 -2.086,-0.66 -2.721,0.921 -0.529,1.313 -0.593,1.538 -0.593,1.538 -0.872,-0.332 -1.24,-0.463 -2.528,-0.921 0.463,-1.171 1.175,-2.944 2.042,-3.672 0.983,-0.824 2.558,-0.978 5.093,-0.078 2.534,0.901 3.817,2.669 3.474,4.089 -0.237,0.978 -1.348,4.281 -2.165,5.251 -0.896,1.064 -2.761,0.965 -4.433,0.877 -1.673,-0.087 -2.926,-0.383 -3.566,0.575 -0.543,0.814 -1.206,2.749 -1.138,3.464 0.068,0.715 1.207,1.073 1.452,1.16 0.246,0.088 1.454,0.413 1.9,-0.292 C -1.114,2.867 -1.18,2.804 0,0"
         style="fill:#000000 icc-color(sRGB-IEC61966-2, 0.1, 0, 0, 0);fill-opacity:1;fill-rule:nonzero;stroke:none"
         transform="matrix(2.77086,0,0,-2.77086,174.86208,204.26874)"
         clip-path="url(#clipPath11)" />
      <path
         id="path12"
         d="m 0,0 c 0.599,0.224 1.169,0.462 1.743,0.666 0.225,0.08 0.764,0.248 1.351,0.41 0.566,-1.594 1.47,-3.748 2.356,-6.242 0.886,-2.494 1.638,-4.287 1.986,-5.268 0.35,-0.981 1.585,-4.457 1.843,-5.055 -0.585,-0.3 -1.551,-0.69 -1.878,-0.806 -0.327,-0.116 -0.874,-0.264 -1.186,-0.421 -0.625,1.827 -1.309,3.748 -1.802,5.138 -0.495,1.39 -1.657,4.661 -2.611,7.154 C 0.791,-1.786 0.36,-0.885 0,0"
         style="fill:#000000 icc-color(sRGB-IEC61966-2, 0.1, 0, 0, 0);fill-opacity:1;fill-rule:nonzero;stroke:none"
         transform="matrix(2.77086,0,0,-2.77086,181.69945,182.57484)"
         clip-path="url(#clipPath13)" />
      <path
         id="path14"
         d="M 0,0 C 0.683,0.151 1.495,0.393 1.916,0.635 2.336,0.876 4.08,1.542 3.325,4.312 2.571,7.083 1.8,8.996 1.391,9.888 c -0.476,1.037 -1.56,2.61 -3.192,2.146 -1.296,-0.369 -2.282,-0.868 -2.282,-0.868 0.516,-1.451 1.361,-3.74 2.092,-5.692 C -1.318,3.676 -0.378,1.063 0,0 m -3.199,14.381 c 2.732,0.994 4.492,0.544 6.294,-1.16 C 4.742,11.665 6.252,7.609 6.84,4.917 7.428,2.225 6.598,-0.234 5.274,-1.303 3.951,-2.372 3.444,-2.437 2.218,-2.873 0.991,-3.308 -0.268,-3.652 -1.218,-4.024 c -0.164,0.494 -0.304,0.824 -0.781,2.037 -0.477,1.211 -1.913,4.973 -2.984,7.814 -1.194,3.167 -1.806,4.853 -2.668,6.926 0.824,0.339 1.924,0.708 4.452,1.628"
         style="fill:#000000 icc-color(sRGB-IEC61966-2, 0.1, 0, 0, 0);fill-opacity:1;fill-rule:nonzero;stroke:none"
         transform="matrix(2.77086,0,0,-2.77086,215.64525,214.01995)"
         clip-path="url(#clipPath15)" />
      <path
         id="path16"
         d="m 0,0 c 1.725,-4.816 3.339,-6.637 4.665,-7.054 1.012,-0.318 2.014,-0.231 3.796,0.402 1.782,0.633 3.064,1.191 3.743,2.796 0.68,1.605 -0.145,4.125 -1.491,7.814 C 9.154,8.229 7.925,10.003 7.358,10.416 6.997,10.679 5.934,11.652 2.915,10.769 -0.104,9.885 -0.899,8.443 -1.299,6.961 -1.741,5.327 -1.289,3.597 0,0 M 2.354,6.504 C 2.532,7.008 3.219,7.355 4.038,7.608 4.857,7.861 5.578,7.965 6.026,7.557 6.474,7.148 7.108,5.896 8.275,2.826 9.441,-0.244 10.024,-1.71 9.735,-2.564 9.503,-3.251 9.098,-3.662 8.145,-3.963 7.191,-4.264 6.343,-4.109 5.857,-3.486 5.371,-2.864 4.424,-0.895 3.624,1.245 2.697,3.724 2.033,5.594 2.354,6.504"
         style="fill:#000000 icc-color(sRGB-IEC61966-2, 0.1, 0, 0, 0);fill-opacity:1;fill-rule:nonzero;stroke:none"
         transform="matrix(2.77086,0,0,-2.77086,181.39909,273.22437)"
         clip-path="url(#clipPath17)" />
      <path
         id="path18"
         d="m 0,0 c 1.268,0.375 3.151,1.044 3.79,1.271 0.795,-2.558 1.81,-4.773 2.524,-6.678 0.715,-1.904 1.387,-3.9 1.956,-5.289 0.569,-1.388 0.935,-2.31 1.76,-2.291 1.028,0.024 3.101,0.594 3.077,1.829 -0.02,1.03 -0.163,2.014 -1.029,4.239 -0.945,2.43 -1.758,4.77 -2.307,6.316 -0.55,1.547 -1.435,3.792 -1.692,4.193 0.805,0.4 2.443,0.906 2.443,0.906 0.945,-2.126 2.157,-5.482 2.986,-7.764 0.878,-2.418 2.241,-6.627 2.321,-7.81 0.079,-1.184 0.173,-2.514 -1.361,-3.741 -1.533,-1.227 -4.636,-1.874 -5.937,-1.73 -1.3,0.144 -2.591,0.897 -3.602,3.53 -1.011,2.632 -1.986,5.695 -2.591,7.184 C 1.733,-4.345 0.215,-0.605 0,0"
         style="fill:#000000 icc-color(sRGB-IEC61966-2, 0.1, 0, 0, 0);fill-opacity:1;fill-rule:nonzero;stroke:none"
         transform="matrix(2.77086,0,0,-2.77086,205.16449,233.19486)"
         clip-path="url(#clipPath19)" />
      <path
         id="path20"
         d="m 0,0 c -0.293,0.955 -0.824,2.481 -1.155,3.284 -0.331,0.804 -1.488,3.8 -2.055,5.394 -0.566,1.595 -1.597,4.107 -3.265,8.671 -0.662,1.811 -0.99,2.988 -1.501,4.383 -0.449,-0.167 -1.029,-0.373 -1.562,-0.529 -0.631,-0.186 -1.062,-0.32 -2.19,-0.786 0.862,-2.248 2.632,-6.905 3.903,-10.155 1.503,-3.84 3.059,-8.122 3.85,-10.155 0.792,-2.032 1.897,-4.685 1.897,-4.685 0.672,0.343 2.369,0.911 3.237,1.289 C 1.007,-2.894 0.293,-0.955 0,0"
         style="fill:#000000 icc-color(sRGB-IEC61966-2, 0.1, 0, 0, 0);fill-opacity:1;fill-rule:nonzero;stroke:none"
         transform="matrix(2.77086,0,0,-2.77086,129.86331,248.9943)"
         clip-path="url(#clipPath21)" />
      <path
         id="path22"
         d="M 0,0 C -0.103,0.527 -0.186,0.92 -0.408,1.681 -0.642,1.602 -0.899,1.515 -1.187,1.418 -3.654,0.587 -4.801,-0.151 -6.573,-0.734 c -1.773,-0.584 -3.805,-1.214 -3.805,-1.214 -0.463,1.171 -1.232,3.338 -1.313,3.954 0.87,0.401 2.433,1.186 3.727,1.692 1.293,0.506 1.553,0.552 2.07,0.782 -0.142,0.272 -0.624,1.758 -0.784,2.207 -0.789,-0.372 -1.884,-0.53 -2.578,-0.777 -0.695,-0.247 -1.785,-0.68 -2.507,-0.982 -0.287,0.68 -0.822,2.055 -1.299,3.267 1.525,0.634 4.069,1.768 4.957,1.992 -0.329,0.665 -1.215,3.159 -1.392,3.787 -1.475,-0.386 -2.52,-0.942 -4.223,-1.592 -1.703,-0.651 -3.12,-1.132 -4.249,-1.648 1.02,-2.354 2.29,-5.54 3.089,-7.789 0.799,-2.249 1.595,-4.521 2.094,-5.829 0.465,-1.217 0.784,-2.208 0.986,-2.838 1.513,0.537 3.67,1.073 5.63,1.908 1.959,0.834 4.114,1.976 5.571,2.54 0.256,0.099 0.531,0.204 0.816,0.311 C 0.139,-0.648 0.062,-0.316 0,0"
         style="fill:#000000 icc-color(sRGB-IEC61966-2, 0.1, 0, 0, 0);fill-opacity:1;fill-rule:nonzero;stroke:none"
         transform="matrix(2.77086,0,0,-2.77086,275.87378,195.39894)"
         clip-path="url(#clipPath23)" />
      <path
         id="path24"
         d="M 0,0 C 0.456,0.189 1.09,0.441 1.67,0.631 2.207,0.808 2.598,0.943 3.405,1.296 2.571,3.557 1.175,7.621 0.734,8.652 0.06,10.23 -3.354,20.265 -3.691,21.319 c 0.817,0.366 3.113,1.258 4.829,1.868 -0.178,0.391 -0.614,1.779 -0.889,2.714 -1.355,-0.557 -2.364,-0.916 -4.514,-1.793 -2.15,-0.878 -3.877,-1.454 -5.21,-1.965 -1.333,-0.512 -2.546,-0.829 -3.036,-1.155 0.251,-0.706 0.686,-1.611 0.784,-1.993 0.098,-0.382 0.49,-1.379 0.49,-1.379 1.246,0.329 3.463,1.23 4.364,1.361 1.025,-2.779 1.965,-5.21 3.057,-7.965 1.093,-2.756 2.578,-7.566 3.39,-9.853 C -0.29,0.776 -0.15,0.398 0,0"
         style="fill:#000000 icc-color(sRGB-IEC61966-2, 0.1, 0, 0, 0);fill-opacity:1;fill-rule:nonzero;stroke:none"
         transform="matrix(2.77086,0,0,-2.77086,273.69506,279.73866)"
         clip-path="url(#clipPath25)" />
      <path
         id="path26"
         d="M 0,0 C 0.142,0.03 0.283,0.066 0.423,0.1 L 0.519,-0.052 C 0.289,-0.117 0.056,-0.195 -0.17,-0.273 -0.386,-0.349 -0.605,-0.427 -0.816,-0.518 l -0.025,0.175 c 0.108,0.055 0.218,0.105 0.325,0.162 -0.058,0.202 -0.273,0.822 -0.37,1.102 L -0.932,1.052 C -0.965,1.147 -1.145,1.657 -1.212,1.816 -1.333,1.8 -1.453,1.765 -1.571,1.734 L -1.65,1.888 -0.844,2.172 C -0.489,2.295 -0.17,2.374 0.022,2.364 0.38,2.343 0.493,2.137 0.526,2.041 0.723,1.475 0.257,1.022 -0.204,0.786 L -0.244,0.97 C 0.025,1.146 0.181,1.383 0.054,1.745 -0.009,1.927 -0.149,2.04 -0.321,2.062 -0.423,2.074 -0.568,2.046 -0.699,2.004 -0.657,1.853 -0.523,1.46 -0.437,1.213 L -0.389,1.076 C -0.301,0.824 -0.072,0.174 0,0"
         style="fill:#000000 icc-color(sRGB-IEC61966-2, 0.1, 0, 0, 0);fill-opacity:1;fill-rule:nonzero;stroke:none"
         transform="matrix(2.77086,0,0,-2.77086,180.40186,172.42463)"
         clip-path="url(#clipPath27)" />
      <path
         id="path28"
         d="M 0,0 C 0.118,0.019 0.236,0.049 0.352,0.077 L 0.45,-0.077 c -0.238,-0.059 -0.482,-0.146 -0.711,-0.226 -0.19,-0.066 -0.378,-0.137 -0.56,-0.214 l -0.027,0.177 c 0.111,0.046 0.22,0.102 0.325,0.159 -0.053,0.188 -0.237,0.726 -0.34,1.022 L -0.93,1.032 C -0.964,1.131 -1.148,1.648 -1.217,1.813 -1.335,1.791 -1.452,1.765 -1.568,1.737 l -0.098,0.154 c 0.24,0.057 0.488,0.148 0.718,0.228 0.185,0.064 0.379,0.132 0.556,0.218 L -0.373,2.154 C -0.482,2.103 -0.588,2.045 -0.695,1.991 -0.664,1.875 -0.552,1.545 -0.428,1.188 l 0.07,-0.201 C -0.223,0.601 -0.056,0.129 0,0"
         style="fill:#000000 icc-color(sRGB-IEC61966-2, 0.1, 0, 0, 0);fill-opacity:1;fill-rule:nonzero;stroke:none"
         transform="matrix(2.77086,0,0,-2.77086,186.86517,170.17691)"
         clip-path="url(#clipPath29)" />
      <path
         id="path30"
         d="m 0,0 c -0.245,0.144 -0.459,0.281 -0.578,0.352 -0.06,-0.197 -0.19,-0.742 -0.232,-1.033 0.085,0.013 0.17,0.028 0.254,0.047 l 0.078,-0.152 -0.055,-0.019 c -0.052,-0.018 -0.334,-0.102 -0.52,-0.167 -0.142,-0.049 -0.278,-0.104 -0.416,-0.165 l -0.003,0.184 c 0.069,0.036 0.145,0.071 0.204,0.121 0.106,0.141 0.407,1.075 0.488,1.315 -0.164,0.106 -0.386,0.252 -0.593,0.386 -0.214,0.138 -0.41,0.262 -0.512,0.316 -0.082,-0.003 -0.164,-0.02 -0.244,-0.032 l -0.083,0.159 c 0.189,0.032 0.386,0.108 0.563,0.17 0.204,0.071 0.406,0.149 0.606,0.23 l 0.011,-0.18 C -1.109,1.495 -1.186,1.457 -1.26,1.414 c 0.141,-0.112 0.5,-0.38 0.653,-0.483 0.057,0.188 0.169,0.584 0.206,0.784 L -0.462,1.707 C -0.513,1.699 -0.564,1.689 -0.613,1.68 l -0.089,0.153 c 0.175,0.045 0.348,0.1 0.519,0.16 0.131,0.046 0.259,0.098 0.385,0.155 L 0.242,1.983 C 0.173,1.936 0.101,1.895 0.029,1.849 L 0.011,1.813 C -0.064,1.667 -0.125,1.512 -0.188,1.36 -0.279,1.138 -0.37,0.905 -0.411,0.797 0.122,0.43 0.648,0.051 1.188,-0.304 L 0.942,-0.448 C 0.617,-0.343 0.293,-0.17 0,0"
         style="fill:#000000 icc-color(sRGB-IEC61966-2, 0.1, 0, 0, 0);fill-opacity:1;fill-rule:nonzero;stroke:none"
         transform="matrix(2.77086,0,0,-2.77086,193.02479,166.94138)"
         clip-path="url(#clipPath31)" />
      <path
         id="path32"
         d="m 0,0 c -0.003,-0.292 -0.01,-0.695 -0.01,-0.87 l 0.552,0.18 C 0.404,-0.511 0.149,-0.193 0,0 m 1.281,-1.625 c -0.198,0.254 -0.391,0.524 -0.61,0.761 -0.142,-0.052 -0.534,-0.21 -0.674,-0.276 0.004,-0.131 0.037,-0.649 0.081,-0.905 0.095,0.011 0.188,0.035 0.28,0.057 L 0.447,-2.142 C 0.25,-2.198 0.053,-2.261 -0.139,-2.328 -0.284,-2.379 -0.427,-2.434 -0.566,-2.498 l -0.035,0.175 c 0.094,0.043 0.186,0.091 0.275,0.144 0.04,0.295 0.073,1.924 0.08,2.273 C -0.331,0.083 -0.414,0.063 -0.498,0.045 l -0.063,0.161 c 0.17,0.046 0.342,0.099 0.509,0.158 0.213,0.074 0.429,0.152 0.636,0.241 L 0.618,0.433 C 0.545,0.398 0.47,0.362 0.401,0.319 0.523,0.153 0.837,-0.241 1.056,-0.511 1.23,-0.724 1.605,-1.18 1.854,-1.419 1.959,-1.403 2.063,-1.381 2.166,-1.36 L 2.25,-1.521 C 2.043,-1.556 1.809,-1.649 1.615,-1.717 1.413,-1.787 1.206,-1.862 1.009,-1.948 l -0.018,0.181 c 0.099,0.044 0.197,0.088 0.29,0.142"
         style="fill:#000000 icc-color(sRGB-IEC61966-2, 0.1, 0, 0, 0);fill-opacity:1;fill-rule:nonzero;stroke:none"
         transform="matrix(2.77086,0,0,-2.77086,198.05474,160.54679)"
         clip-path="url(#clipPath33)" />
      <path
         id="path34"
         d="m 0,0 c 0.113,0.094 0.274,0.304 0.172,0.597 -0.058,0.166 -0.285,0.349 -0.802,0.185 0.058,-0.191 0.226,-0.694 0.3,-0.904 l 0.018,-0.052 C -0.21,-0.136 -0.101,-0.082 0,0 M -1.142,0.589 C -1.262,0.567 -1.382,0.534 -1.501,0.504 L -1.58,0.657 -0.794,0.935 C -0.488,1.042 -0.059,1.188 0.205,1.177 0.417,1.168 0.589,1.073 0.659,0.87 0.736,0.649 0.598,0.304 0.409,0.072 0.773,-0.237 1.424,-0.692 1.827,-0.901 L 1.561,-1.036 c -0.273,0.026 -1.274,0.59 -1.567,0.767 -0.088,-0.039 -0.178,-0.077 -0.238,-0.101 l 0.013,-0.038 c 0.069,-0.196 0.23,-0.64 0.302,-0.819 0.117,0.02 0.235,0.049 0.349,0.078 L 0.51,-1.304 C 0.3,-1.358 0.09,-1.43 -0.114,-1.501 c -0.211,-0.074 -0.43,-0.15 -0.633,-0.241 l -0.028,0.178 c 0.111,0.048 0.224,0.098 0.328,0.158 -0.046,0.165 -0.239,0.727 -0.348,1.039 l -0.069,0.198 c -0.038,0.11 -0.22,0.622 -0.278,0.758"
         style="fill:#000000 icc-color(sRGB-IEC61966-2, 0.1, 0, 0, 0);fill-opacity:1;fill-rule:nonzero;stroke:none"
         transform="matrix(2.77086,0,0,-2.77086,206.93063,159.71913)"
         clip-path="url(#clipPath35)" />
      <path
         id="path36"
         d="M 0,0 C -0.036,0.105 0.02,0.22 0.124,0.256 0.228,0.293 0.343,0.237 0.379,0.132 0.416,0.027 0.36,-0.087 0.256,-0.123 0.152,-0.16 0.037,-0.105 0,0"
         style="fill:#000000 icc-color(sRGB-IEC61966-2, 0.1, 0, 0, 0);fill-opacity:1;fill-rule:nonzero;stroke:none"
         transform="matrix(2.77086,0,0,-2.77086,173.74542,172.15669)"
         clip-path="url(#clipPath37)" />
      <path
         id="path38"
         d="m 0,0 c -0.054,0.074 -0.117,0.144 -0.214,0.126 -0.049,-0.031 -0.06,-0.096 -0.057,-0.14 0.069,-0.407 0.197,-0.813 0.345,-1.22 0.056,-0.138 0.103,-0.35 0.286,-0.325 0.092,0.005 0.166,0.057 0.212,0.133 -0.138,0.469 -0.323,0.88 -0.506,1.312 C 0.041,-0.061 0.014,-0.02 0,0"
         style="fill:#000000 icc-color(sRGB-IEC61966-2, 0.1, 0, 0, 0);fill-opacity:1;fill-rule:nonzero;stroke:none"
         transform="matrix(2.77086,0,0,-2.77086,151.88417,178.65353)"
         clip-path="url(#clipPath39)" />
      <path
         id="path40"
         d="M 0,0 C 0.08,0.034 0.31,0.102 0.385,0.227 0.352,0.362 0.192,0.439 0.056,0.451 -0.314,0.349 -0.631,0.152 -0.959,-0.009 -0.99,-0.025 -1.05,-0.054 -1.033,-0.101 c 0.083,-0.144 0.247,-0.12 0.376,-0.108 l -0.001,-0.02 0.007,-0.32 -0.024,-0.008 -0.044,-0.02 c -0.009,-0.005 -0.019,-0.011 -0.028,-0.017 -0.035,-0.027 -0.076,-0.063 -0.044,-0.106 0.191,-0.186 0.019,-0.418 0.122,-0.635 0.067,-0.141 0.196,-0.266 0.353,-0.295 0.022,-0.002 0.054,-0.003 0.093,0.006 0.355,0.09 0.574,0.37 0.763,0.664 0.007,0.076 -0.069,0.142 -0.129,0.181 -0.267,-0.033 -0.465,-0.229 -0.707,-0.333 l -0.001,0.001 -0.019,-0.01 c 0.004,0.073 0.002,0.227 -0.001,0.403 0.03,0.015 0.092,0.04 0.145,0.054 0.051,0.016 0.107,0.03 0.137,0.041 0.12,0.042 0.244,0.074 0.309,0.169 0.011,0.017 0.009,0.034 0.006,0.043 -0.011,0.043 -0.027,0.128 -0.075,0.164 -0.167,0.002 -0.341,-0.086 -0.501,-0.142 l -0.023,-0.008 -0.008,0.27 z"
         style="fill:#000000 icc-color(sRGB-IEC61966-2, 0.1, 0, 0, 0);fill-opacity:1;fill-rule:nonzero;stroke:none"
         transform="matrix(2.77086,0,0,-2.77086,165.20175,174.61416)"
         clip-path="url(#clipPath41)" />
      <path
         id="path42"
         d="m 0,0 v 0 c 0.063,-0.189 0.044,-0.38 -0.056,-0.559 -0.102,-0.161 -0.236,-0.307 -0.419,-0.371 0.003,0.019 0.006,0.039 0.009,0.058 0.017,0.087 0.033,0.175 0.05,0.263 0.046,0.204 0.108,0.41 0.189,0.608 0.002,0.005 0.004,0.01 0.007,0.015 0.002,0.004 0.003,0.009 0.005,0.013 0.017,0.039 0.037,0.079 0.056,0.119 0.006,0.008 0.015,0.018 0.027,0.019 H -0.133 C -0.1,0.17 -0.076,0.137 -0.055,0.11 -0.04,0.089 -0.017,0.049 0,0 Z M -0.081,0.45 C -0.097,0.459 -0.114,0.466 -0.124,0.471 -0.176,0.488 -0.23,0.491 -0.281,0.474 -0.32,0.46 -0.364,0.417 -0.386,0.393 -0.542,0.213 -0.657,-0.005 -0.75,-0.242 c -0.001,-0.005 -0.003,-0.009 -0.005,-0.013 -0.053,-0.144 -0.123,-0.358 -0.178,-0.612 -0.05,0.028 -0.08,0.114 -0.094,0.167 -0.084,0.376 0.196,0.745 0.024,1.106 C -1.072,0.387 -1.095,0.309 -1.126,0.249 -1.136,0.227 -1.147,0.201 -1.158,0.174 -1.303,-0.237 -1.382,-0.67 -1.172,-1.087 c 0.03,-0.055 0.074,-0.111 0.119,-0.154 0.018,-0.019 0.036,-0.033 0.049,-0.042 -0.016,-0.148 -0.026,-0.303 -0.023,-0.462 0.012,-0.255 0.029,-0.51 0.077,-0.769 0.008,-0.06 0.028,-0.173 0.073,-0.263 0.013,-0.028 0.028,-0.054 0.048,-0.075 0.102,-0.104 0.287,-0.193 0.416,-0.128 -0.068,0.328 -0.1,0.655 -0.117,0.98 -0.006,0.165 -0.007,0.362 0.005,0.578 0.189,0.031 0.316,0.134 0.316,0.134 0.327,0.26 0.557,0.738 0.504,1.151 C 0.271,0.119 0.126,0.32 -0.081,0.45"
         style="fill:#000000 icc-color(sRGB-IEC61966-2, 0.1, 0, 0, 0);fill-opacity:1;fill-rule:nonzero;stroke:none"
         transform="matrix(2.77086,0,0,-2.77086,170.50878,173.45871)"
         clip-path="url(#clipPath43)" />
      <path
         id="path44"
         d="m 0,0 c -0.04,-0.054 -0.086,-0.096 -0.131,-0.138 -0.145,-0.117 -0.306,-0.207 -0.488,-0.237 0.066,0.283 0.22,0.589 0.438,0.774 0.012,0.009 0.036,0.027 0.063,0.042 C -0.047,0.473 0.034,0.508 0.09,0.43 0.173,0.286 0.084,0.122 0,0 m -0.956,-0.3 c -0.004,-0.01 -0.007,-0.02 -0.011,-0.03 -0.041,0.016 -0.051,0.063 -0.054,0.109 -0.002,0.035 0.004,0.063 0.005,0.071 0.01,0.05 0.03,0.106 0.053,0.153 0.035,0.072 0.083,0.139 0.138,0.201 0.01,0.011 0.026,0.026 0.04,0.038 0.002,0.002 0.004,0.004 0.006,0.005 0.017,0.014 0.053,0.038 0.112,0.052 v 0 c 0.012,0.003 0.025,0.006 0.038,0.006 C -0.811,0.068 -0.922,-0.21 -0.956,-0.3 m 1.162,0.961 v 0 C 0.196,0.668 0.185,0.673 0.174,0.678 v 0 c 0,0 -0.065,0.032 -0.138,0.03 C 0.028,0.708 0.02,0.707 0.013,0.707 -0.02,0.703 -0.048,0.695 -0.065,0.689 -0.071,0.687 -0.077,0.684 -0.084,0.681 -0.129,0.744 -0.229,0.76 -0.229,0.76 -0.299,0.772 -0.369,0.764 -0.43,0.751 L -0.438,0.75 C -0.585,0.715 -0.689,0.658 -0.768,0.606 -0.83,0.564 -0.881,0.517 -0.911,0.488 -1.187,0.204 -1.249,-0.033 -1.258,-0.164 -1.259,-0.167 -1.259,-0.17 -1.26,-0.173 c 0,-0.015 0,-0.03 0,-0.045 0.001,-0.022 0.003,-0.038 0.004,-0.046 0.021,-0.155 0.109,-0.299 0.256,-0.37 0.005,-0.013 0.017,-0.055 0.031,-0.094 0.009,-0.021 0.022,-0.048 0.037,-0.073 0.01,-0.014 0.022,-0.029 0.037,-0.046 0.045,-0.046 0.075,-0.056 0.117,-0.041 0.078,0.02 0.071,0.157 0.084,0.195 0.165,0.005 0.353,0.036 0.496,0.14 0.1,0.074 0.178,0.155 0.256,0.255 C 0.185,-0.131 0.287,0.056 0.331,0.27 0.343,0.34 0.34,0.402 0.334,0.442 0.32,0.538 0.283,0.615 0.206,0.661"
         style="fill:#000000 icc-color(sRGB-IEC61966-2, 0.1, 0, 0, 0);fill-opacity:1;fill-rule:nonzero;stroke:none"
         transform="matrix(2.77086,0,0,-2.77086,152.35854,175.6718)"
         clip-path="url(#clipPath45)" />
      <path
         id="path46"
         d="m 0,0 c -0.071,0.052 -0.199,0.15 -0.307,0.119 -0.035,-0.033 -0.016,-0.092 0.003,-0.125 0.213,-0.362 0.489,-0.663 0.636,-1.08 0.006,-0.017 0.015,-0.045 0.017,-0.063 0,-0.019 -0.004,-0.036 -0.019,-0.044 -0.344,0.234 -0.626,0.534 -1.015,0.721 -0.016,0.007 -0.027,0.01 -0.033,0.011 -0.053,0.005 -0.087,-0.036 -0.107,-0.083 -0.004,-0.015 -0.014,-0.047 -0.018,-0.097 -0.017,-0.245 0.022,-0.496 0.072,-0.743 0.023,-0.126 0.085,-0.475 0.232,-0.629 0.058,-0.053 0.146,-0.096 0.221,-0.063 0.051,0.024 0.069,0.104 0.068,0.164 l -0.276,0.978 0.04,-0.032 c 0.305,-0.246 0.528,-0.566 0.923,-0.707 0.054,-0.013 0.108,0.013 0.149,0.049 0.027,0.021 0.062,0.055 0.086,0.098 0.077,0.122 0.081,0.29 0.055,0.413 C 0.623,-0.646 0.364,-0.264 0,0"
         style="fill:#000000 icc-color(sRGB-IEC61966-2, 0.1, 0, 0, 0);fill-opacity:1;fill-rule:nonzero;stroke:none"
         transform="matrix(2.77086,0,0,-2.77086,160.60296,174.78263)"
         clip-path="url(#clipPath47)" />
      <path
         id="path48"
         d="m 0,0 c -0.003,0.007 -0.009,0.014 -0.018,0.019 -0.005,0.003 -0.013,0.004 -0.02,0.005 -0.513,0.028 -1.116,-0.243 -1.453,-0.618 -0.103,-0.11 -0.118,-0.252 -0.08,-0.394 0.008,-0.023 0.029,-0.083 0.072,-0.122 0.034,-0.029 0.075,-0.051 0.115,-0.057 0.006,-10e-4 0.016,-10e-4 0.028,0 0.147,0.019 0.297,0.059 0.446,0.101 0.075,0.02 0.13,0.035 0.13,0.035 0.284,0.074 0.427,0.083 0.427,0.083 l 0.001,0.001 c 0.122,0.008 0.283,0.036 0.361,-0.089 0.003,-0.006 0.004,-0.01 0.004,-0.016 -0.042,-0.182 -0.302,-0.33 -0.478,-0.425 -0.118,-0.057 -0.41,-0.217 -0.604,-0.145 -0.027,0.01 -0.039,0.029 -0.043,0.041 -0.002,0.003 -0.003,0.006 -0.003,0.009 v 0 c -0.007,0.022 -0.007,0.046 0,0.071 10e-4,0.003 0.005,0.014 0.013,0.025 0.156,0.182 0.49,0.026 0.681,0.12 0.194,0.09 0.242,0.161 0.247,0.211 0.006,0.038 -0.01,0.058 -0.01,0.058 -0.091,0.035 -0.267,0.026 -0.405,0.004 -0.194,-0.038 -0.47,-0.09 -0.616,-0.266 -0.003,-0.003 -0.03,-0.037 -0.041,-0.08 -0.018,-0.065 -0.021,-0.138 -0.001,-0.206 0.005,-0.012 0.012,-0.029 0.026,-0.048 0.177,-0.203 0.467,-0.242 0.71,-0.215 0.322,0.057 0.638,0.214 0.794,0.494 v 0 c 0.03,0.053 0.041,0.096 0.045,0.119 0.018,0.132 -0.028,0.319 -0.113,0.446 -0.024,0.036 -0.052,0.06 -0.073,0.075 -0.342,0.228 -0.744,-0.01 -1.131,-0.079 -0.048,-0.01 -0.116,-0.021 -0.179,-0.023 -0.038,-0.002 -0.062,0 -0.075,0.002 -0.004,0.001 -0.008,0.001 -0.012,0.002 0,0.001 -0.001,0.001 -0.001,0.001 -0.01,0.003 -0.019,0.009 -0.026,0.018 -0.003,0.006 -10e-4,0.011 0.001,0.014 0.273,0.238 0.661,0.354 1,0.518 0.106,0.056 0.226,0.093 0.273,0.206 0.002,0.003 0.004,0.009 0.007,0.016 0,0.001 0,0.001 0,0.002 0,0 0,0 0,0 0.004,0.013 0.008,0.031 0.007,0.051 0,0.01 -0.001,0.02 -0.003,0.027 0,10e-4 -0.001,0.002 -0.002,0.003 C 0.001,-0.003 0,-0.002 0,-0.001 v 0 C 0,0 0,0 0,0"
         style="fill:#000000 icc-color(sRGB-IEC61966-2, 0.1, 0, 0, 0);fill-opacity:1;fill-rule:nonzero;stroke:none"
         transform="matrix(2.77086,0,0,-2.77086,157.24827,176.55682)"
         clip-path="url(#clipPath49)" />
      <path
         id="path50"
         d="m 0,0 c -0.398,0.006 -0.834,0.065 -1.194,0.319 -0.007,0.005 -0.011,0.011 -0.013,0.015 -10e-4,0 -10e-4,0.001 -10e-4,0.001 -0.001,0 -0.001,0.001 -0.001,0.002 -0.033,0.06 0.026,0.134 0.07,0.168 0.12,0.095 0.258,0.177 0.397,0.252 0.245,0.129 0.386,0.187 0.444,0.212 C -0.187,0.65 -0.101,0.329 0,0 m 2.704,2.01 v 0 c 0,0 -0.282,0.618 -1.419,0.984 C 1.278,2.997 1.27,2.999 1.263,3.002 1.259,3.003 1.255,3.004 1.25,3.005 1.171,3.031 1.088,3.054 1,3.076 0.649,3.166 0.305,3.204 0.034,3.225 -0.766,3.287 -1.858,3.149 -2.669,2.554 -2.784,2.461 -2.787,2.319 -2.788,2.186 c 10e-4,-0.019 0.006,-0.054 0.026,-0.07 0.066,-0.035 0.146,-0.013 0.224,0.011 0.032,0.011 0.1,0.035 0.144,0.058 0.026,0.016 0.048,0.037 0.036,0.068 -0.003,0.007 -0.006,0.01 -0.011,0.014 -0.084,0.053 -0.167,-0.009 -0.243,0.005 -0.003,0.002 -0.004,0.004 -0.005,0.007 0.002,0.006 0.004,0.011 0.006,0.016 v 0 c 0.015,0.028 0.049,0.052 0.079,0.071 10e-4,10e-4 0.011,0.007 0.012,0.008 0.006,0.003 0.012,0.006 0.018,0.009 0.007,0.004 0.012,0.006 0.012,0.006 0.694,0.372 1.452,0.484 2.169,0.473 C 0.513,2.818 1.518,2.667 2.138,1.989 2.153,1.971 2.171,1.949 2.189,1.925 2.191,1.923 2.193,1.92 2.194,1.918 2.197,1.914 2.2,1.909 2.204,1.904 2.213,1.89 2.222,1.875 2.231,1.86 2.233,1.857 2.235,1.853 2.237,1.85 2.387,1.589 2.429,1.259 2.263,0.988 1.901,0.41 1.198,0.125 0.523,0.023 L 0.193,0.915 C 0.178,0.96 0.142,1.064 0.124,1.112 0.117,1.128 0.12,1.121 0.115,1.138 0.198,1.169 0.223,1.175 0.251,1.184 0.54,1.27 0.962,1.358 1.312,1.314 1.318,1.313 1.327,1.309 1.331,1.299 1.332,1.298 1.332,1.298 1.332,1.298 1.332,1.297 1.333,1.294 1.333,1.292 1.336,1.273 1.334,1.253 1.33,1.236 v 0 c 10e-4,-10e-4 0,-10e-4 0,-0.002 C 1.328,1.227 1.327,1.22 1.325,1.213 1.314,1.17 1.303,1.153 1.3,1.148 1.262,1.085 1.192,1.036 1.215,0.969 1.218,0.964 1.22,0.963 1.226,0.961 1.297,0.956 1.372,0.969 1.44,0.991 1.449,0.995 1.484,1.008 1.515,1.04 1.596,1.13 1.682,1.258 1.67,1.379 1.663,1.489 1.6,1.563 1.527,1.626 1.483,1.663 1.427,1.686 1.399,1.696 1.087,1.798 0.762,1.765 0.442,1.682 0.251,1.633 0.11,1.582 0.031,1.551 0.023,1.548 0.015,1.545 0.007,1.542 L -0.013,1.534 C -0.015,1.533 -0.032,1.525 -0.033,1.525 L -0.224,2.033 C -0.287,2.156 -0.411,2.285 -0.564,2.286 -0.616,1.976 -0.418,1.398 -0.416,1.348 -0.431,1.339 -0.448,1.329 -0.463,1.319 -0.55,1.27 -0.644,1.212 -0.741,1.146 -0.822,1.093 -0.901,1.037 -0.976,0.974 -1.115,0.854 -1.248,0.718 -1.34,0.536 -1.346,0.522 -1.354,0.504 -1.358,0.487 -1.373,0.424 -1.371,0.349 -1.337,0.289 c 0.004,-0.006 0.015,-0.022 0.031,-0.038 0.391,-0.333 0.945,-0.493 1.427,-0.541 0.081,-0.138 0.137,-0.297 0.269,-0.371 0.091,0.006 0.178,0.051 0.235,0.088 0.07,0.063 0.025,0.175 0.005,0.257 0.007,0.001 0.006,0.001 0.011,0.001 0.781,0.08 1.551,0.422 1.983,1.051 0.267,0.397 0.306,0.86 0.08,1.274"
         style="fill:#000000 icc-color(sRGB-IEC61966-2, 0.1, 0, 0, 0);fill-opacity:1;fill-rule:nonzero;stroke:none"
         transform="matrix(2.77086,0,0,-2.77086,143.15596,185.60977)"
         clip-path="url(#clipPath51)" />
      <path
         id="path52"
         d="m 0,0 c -0.551,-0.197 -1.29,-0.399 -1.932,-0.653 -1.303,-0.514 -6.316,-2.296 -6.316,-2.296 l -10.01,-3.627 -0.409,1.011 c -1.069,2.794 -1.14,4.807 -0.577,6.396 0.539,1.521 1.189,1.761 2.017,2.283 l 6.964,3.811 c 3.481,2.045 4.457,6.82 2.519,12.29 -2.242,6.33 -3.166,7.716 -4.877,8.951 -1.35,0.976 -4.035,2.498 -8.753,1.589 -5.204,-1.002 -8.584,-3.563 -9.375,-4.329 -1.169,-1.13 -1.954,-3.084 -1.719,-5.428 0.113,-1.124 1.028,-3.417 1.571,-4.972 0.218,-0.622 0.428,-1.224 0.61,-1.788 1.121,0.275 2.223,0.654 3.298,1.024 0.823,0.283 1.617,0.556 2.382,0.769 -0.118,0.368 -0.234,0.706 -0.347,1.037 -0.337,0.987 -0.986,2.539 -1.362,4.209 l -0.012,0.06 c -0.33,1.919 1.404,3.455 3.993,4.548 2.443,1.032 4.583,1.434 6.149,-0.621 1.43,-1.573 2.925,-5.961 3.08,-8.38 0.219,-3.413 -1.54,-4.518 -5.273,-7.164 -2.824,-2.001 -6.344,-3.874 -7.259,-6.215 l -0.002,0.007 c -0.168,-0.402 -0.255,-0.846 -0.297,-1.245 -0.159,-0.962 -0.175,-4.511 4.277,-14.832 l 10.495,4.031 c 2.738,0.963 4.874,1.701 7.294,2.564 2.201,0.784 4.15,1.511 5.837,2.087 z"
         style="fill:#000000 icc-color(sRGB-IEC61966-2, 0.1, 0, 0, 0);fill-opacity:1;fill-rule:nonzero;stroke:none"
         transform="matrix(2.77086,0,0,-2.77086,356.50249,220.53812)"
         clip-path="url(#clipPath53)" />
    </g>
  </g>
</svg>
